<svg width="204" height="162" viewBox="0 0 204 162" fill="none" xmlns="http://www.w3.org/2000/svg">
<path d="M82.1543 143.765C99.2047 145.042 115.229 151.975 131.592 156.915C147.956 161.863 166.064 164.762 181.828 158.144C197.591 151.526 208.966 132.357 201.815 116.851C197.355 107.184 186.959 100.842 183.904 90.6386C179.791 76.8901 190.645 63.0865 190.977 48.7471C191.45 28.3253 171.1 13.7023 151.713 7.17077C121.67 -2.96134 87.7194 -2.77225 58.8995 10.409C30.0797 23.5902 7.18018 50.3544 1.38622 81.4677C-3.02635 105.128 3.22545 130.82 18.2866 149.666C28.7536 162.769 32.8662 162.635 45.6224 153.858C56.6262 146.286 68.6877 142.765 82.1543 143.773V143.765Z" fill="#EFF3FD"/>
</svg>
