<svg width="42" height="42" viewBox="0 0 42 42" fill="none" xmlns="http://www.w3.org/2000/svg">
<g clip-path="url(#clip0_258_3372)">
<path d="M21 42C32.598 42 42 32.598 42 21C42 9.40202 32.598 0 21 0C9.40202 0 0 9.40202 0 21C0 32.598 9.40202 42 21 42Z" fill="#3C5A9A"/>
<path d="M27.8274 6.44629H23.1754C20.4147 6.44629 17.3441 7.60739 17.3441 11.6091C17.3576 13.0034 17.3441 14.3388 17.3441 15.8417H14.1504V20.9238H17.4429V35.5544H23.4931V20.8273H27.4865L27.8478 15.8274H23.3889C23.3889 15.8274 23.3989 13.6033 23.3889 12.9574C23.3889 11.376 25.0344 11.4665 25.1334 11.4665C25.9164 11.4665 27.4389 11.4688 27.8297 11.4665V6.44629H27.8274Z" fill="white"/>
</g>
<defs>
<clipPath id="clip0_258_3372">
<rect width="42" height="42" fill="white"/>
</clipPath>
</defs>
</svg>
