<svg width="42" height="42" viewBox="0 0 42 42" fill="none" xmlns="http://www.w3.org/2000/svg">
<g clip-path="url(#clip0_258_3375)">
<path d="M32.5729 0H9.42709C4.22065 0 0 4.22065 0 9.42709V32.5729C0 37.7793 4.22065 42 9.42709 42H32.5729C37.7793 42 42 37.7793 42 32.5729V9.42709C42 4.22065 37.7793 0 32.5729 0Z" fill="url(#paint0_linear_258_3375)"/>
<path d="M15.3902 9H26.8748C27.1301 9.12759 27.5129 9.12759 27.7681 9.25519C28.888 9.43667 29.9351 9.92686 30.7917 10.6707C31.6483 11.4145 32.2805 12.3824 32.6172 13.4658C32.8056 14.09 32.9338 14.7309 33 15.3796V26.6078C32.8176 28.0308 32.2921 29.3882 31.4687 30.5632C30.7624 31.3815 29.8768 32.0259 28.8809 32.4464C27.885 32.8668 26.8055 33.052 25.7264 32.9875H16.1558C14.4478 33.0704 12.7685 32.5258 11.4343 31.4564C10.623 30.7554 9.98275 29.8783 9.56252 28.892C9.14229 27.9057 8.95323 26.8363 9.00979 25.7657V16.8342C8.98871 16.1936 9.03146 15.5525 9.1374 14.9203C9.26626 13.6122 9.80416 12.378 10.6747 11.3931C11.5452 10.4081 12.704 9.72256 13.9865 9.43382L15.3902 9ZM11.4343 26.0975C11.3799 26.7311 11.4647 27.369 11.6827 27.9665C11.9008 28.564 12.2468 29.1066 12.6966 29.5563C13.1464 30.006 13.689 30.352 14.2865 30.57C14.8841 30.788 15.5221 30.8728 16.1558 30.8184C19.4736 30.946 22.7914 30.946 26.1092 30.8184C29.0442 30.8184 30.7031 29.0321 30.8307 26.0975C30.9583 22.78 30.9583 19.4626 30.8307 16.1452C30.8637 15.5165 30.7643 14.8879 30.5387 14.3002C30.3131 13.7124 29.9665 13.1787 29.5213 12.7335C29.0761 12.2884 28.5422 11.9418 27.9544 11.7162C27.3666 11.4907 26.7379 11.3912 26.1092 11.4243C22.7914 11.2967 19.4736 11.2967 16.1558 11.4243C15.5221 11.3699 14.8841 11.4546 14.2865 11.6726C13.689 11.8907 13.1464 12.2366 12.6966 12.6864C12.2468 13.1361 11.9008 13.6787 11.6827 14.2762C11.4647 14.8736 11.3799 15.5115 11.4343 16.1452V26.0975Z" fill="white"/>
<path d="M14.9308 21.1724C14.9342 19.5153 15.594 17.927 16.7659 16.7552C17.9378 15.5835 19.5262 14.9237 21.1835 14.9203C22.8317 14.953 24.4032 15.6221 25.5688 16.7876C26.7344 17.9531 27.4037 19.5244 27.4363 21.1724C27.4329 22.8295 26.7731 24.4178 25.6012 25.5895C24.4293 26.7613 22.8408 27.421 21.1835 27.4244C19.5354 27.3918 17.9639 26.7226 16.7983 25.5571C15.6327 24.3916 14.9634 22.8203 14.9308 21.1724ZM21.1835 17.217C20.4085 17.2044 19.6473 17.4235 18.9976 17.8462C18.3479 18.2689 17.8392 18.876 17.5367 19.5896C17.2343 20.3033 17.1518 21.091 17.3 21.8517C17.4481 22.6125 17.8201 23.3118 18.3682 23.8598C18.9163 24.4079 19.6156 24.7798 20.3765 24.9279C21.1374 25.076 21.9251 24.9936 22.6389 24.6912C23.3526 24.3888 23.9597 23.8801 24.3825 23.2305C24.8053 22.5808 25.0244 21.8197 25.0118 21.0448C25.0118 20.0296 24.6084 19.056 23.8905 18.3381C23.1726 17.6203 22.1989 17.217 21.1835 17.217Z" fill="white"/>
<path d="M26.0326 14.6651C26.0255 14.4621 26.0602 14.2599 26.1347 14.0709C26.2091 13.8819 26.3216 13.7102 26.4653 13.5666C26.6089 13.423 26.7806 13.3105 26.9696 13.236C27.1586 13.1616 27.3609 13.1269 27.5639 13.134C27.9612 13.1609 28.3353 13.3308 28.6168 13.6123C28.8984 13.8939 29.0683 14.2679 29.0952 14.6651C29.0952 15.0712 28.9339 15.4606 28.6467 15.7478C28.3595 16.0349 27.97 16.1962 27.5639 16.1962C27.1578 16.1962 26.7683 16.0349 26.4811 15.7478C26.194 15.4606 26.0326 15.0712 26.0326 14.6651Z" fill="white"/>
</g>
<defs>
<linearGradient id="paint0_linear_258_3375" x1="-2.67683" y1="44.3277" x2="46.7863" y2="-4.40804" gradientUnits="userSpaceOnUse">
<stop stop-color="#FED576"/>
<stop offset="0.26" stop-color="#F47133"/>
<stop offset="0.61" stop-color="#BC3081"/>
<stop offset="1" stop-color="#4C63D2"/>
</linearGradient>
<clipPath id="clip0_258_3375">
<rect width="42" height="42" rx="21" fill="white"/>
</clipPath>
</defs>
</svg>
