<svg width="42" height="42" viewBox="0 0 42 42" fill="none" xmlns="http://www.w3.org/2000/svg">
<path d="M21 0C9.40193 0 0 9.40193 0 21C0 32.598 9.40193 41.9999 21 41.9999C32.598 41.9999 42 32.598 42 21C41.9999 9.40193 32.5978 0 21 0ZM15.3971 31.1525H10.7864V16.2564H15.3971V31.1525ZM13.0698 14.3057C11.564 14.3057 10.3432 13.075 10.3432 11.5571C10.3432 10.0391 11.5641 8.80847 13.0698 8.80847C14.5754 8.80847 15.7962 10.0391 15.7962 11.5571C15.7963 13.0751 14.5755 14.3057 13.0698 14.3057ZM32.6759 31.1525H28.0875V23.3333C28.0875 21.1887 27.2729 19.9916 25.5771 19.9916C23.7316 19.9916 22.7674 21.2384 22.7674 23.3333V31.1525H18.3452V16.2564H22.7674V18.2627C22.7674 18.2627 24.0976 15.8021 27.2562 15.8021C30.4149 15.8021 32.676 17.7307 32.676 21.7205L32.6759 31.1525Z" fill="url(#paint0_linear_258_3371)"/>
<defs>
<linearGradient id="paint0_linear_258_3371" x1="6.15074" y1="6.15074" x2="35.8492" y2="35.8492" gradientUnits="userSpaceOnUse">
<stop stop-color="#2489BE"/>
<stop offset="1" stop-color="#0575B3"/>
</linearGradient>
</defs>
</svg>
