<svg width="203" height="48" viewBox="0 0 203 48" fill="none" xmlns="http://www.w3.org/2000/svg">
<path d="M24.0001 7.29999L5.0001 8.19999C3.9001 8.29999 3.1001 9.09999 3.1001 10.2V37.2C3.1001 38.4 4.1001 39.3 5.2001 39.2L18.6001 38.4C19.0001 38.4 19.4001 38.6 19.5001 38.9C19.8001 39.6 20.5001 39.8 21.4001 39.8H26.4001C27.3001 39.8 28.0001 39.5 28.3001 38.9C28.4001 38.5 28.9001 38.3 29.2001 38.4L42.6001 39.2C43.8001 39.3 44.7001 38.4 44.7001 37.2V10.2C44.7001 9.09999 43.9001 8.29999 42.8001 8.19999L24.0001 7.29999Z" fill="#3563E9"/>
<path d="M43.0001 8.19999L24.0001 7.29999L5.0001 8.19999C3.9001 8.29999 3.1001 9.09999 3.1001 10.2V13.7C3.1001 12.6 3.9001 11.8 5.0001 11.7L24.0001 10.8L43.0001 11.7C44.1001 11.8 44.9001 12.6 44.9001 13.7V10.2C44.9001 9.19999 44.1001 8.29999 43.0001 8.19999Z" fill="#3563E9"/>
<path d="M24.0001 7.29999L5.0001 8.19999C3.9001 8.29999 3.1001 9.09999 3.1001 10.2V37.2C3.1001 38.4 4.1001 39.3 5.2001 39.2L18.6001 38.4C19.0001 38.4 19.4001 38.6 19.5001 38.9C19.8001 39.6 20.5001 39.8 21.4001 39.8H26.4001C27.3001 39.8 28.0001 39.5 28.3001 38.9C28.4001 38.5 28.9001 38.3 29.2001 38.4L42.6001 39.2C43.8001 39.3 44.7001 38.4 44.7001 37.2V10.2C44.7001 9.09999 43.9001 8.29999 42.8001 8.19999L24.0001 7.29999Z" stroke="#45413C" stroke-miterlimit="10" stroke-linecap="round" stroke-linejoin="round"/>
<path d="M25.5001 37.3H22.6001C21.8001 37.3 21.1001 36.6 21.1001 35.8V33.8H27.1001V35.8C27.0001 36.6 26.3001 37.3 25.5001 37.3Z" fill="#627B8C" stroke="#45413C" stroke-miterlimit="10" stroke-linecap="round" stroke-linejoin="round"/>
<path opacity="0.15" d="M23.8999 42.8C33.2887 42.8 40.8999 42.1284 40.8999 41.3C40.8999 40.4716 33.2887 39.8 23.8999 39.8C14.5111 39.8 6.8999 40.4716 6.8999 41.3C6.8999 42.1284 14.5111 42.8 23.8999 42.8Z" fill="#45413C"/>
<path d="M8.6001 7.29999L6.4001 9.99999C6.2001 10.3 6.1001 10.7 6.1001 11.1V36.7L8.6001 33V7.29999ZM39.4001 7.29999L41.6001 9.99999C41.8001 10.3 41.9001 10.7 41.9001 11.1V36.7L39.4001 33V7.29999Z" fill="#FFFEF2"/>
<path d="M6.4001 10.1C6.2001 10.4 6.1001 10.8 6.1001 11.2V14.7C6.1001 14.3 6.2001 13.9 6.4001 13.6L8.6001 10.9V7.29999L6.4001 10.1ZM41.6001 10.1L39.4001 7.39999V10.9L41.6001 13.6C41.8001 13.9 41.9001 14.3 41.9001 14.7V11.2C41.9001 10.8 41.8001 10.4 41.6001 10.1Z" fill="white"/>
<path d="M8.6001 7.29999L6.4001 9.99999C6.2001 10.3 6.1001 10.7 6.1001 11.1V36.7L8.6001 33V7.29999ZM39.4001 7.29999L41.6001 9.99999C41.8001 10.3 41.9001 10.7 41.9001 11.1V36.7L39.4001 33V7.29999Z" stroke="#45413C" stroke-miterlimit="10" stroke-linecap="round" stroke-linejoin="round"/>
<path d="M24.0001 34.8V8.79999C24.0001 7.09999 22.7001 5.79999 21.0001 5.79999L9.5001 6.79999C9.0001 6.79999 8.6001 7.29999 8.6001 7.29999V36.3L21.2001 35.9C21.7001 35.3 22.7001 34.8 24.0001 34.8ZM27.0001 5.79999C25.3001 5.79999 24.0001 7.09999 24.0001 8.79999V34.8C25.3001 34.8 26.3001 35.3 26.8001 35.9L39.4001 36.3V7.29999C39.4001 7.29999 39.0001 6.79999 38.5001 6.69999L27.0001 5.79999Z" fill="#FFFEF2"/>
<path d="M21.0001 5.79999L9.5001 6.79999C9.0001 6.79999 8.6001 7.29999 8.6001 7.29999V10.2C8.6001 9.69999 9.0001 9.19999 9.5001 9.19999L21.0001 8.29999C22.7001 8.29999 24.0001 9.59999 24.0001 11.3V8.79999C24.0001 7.19999 22.7001 5.79999 21.0001 5.79999ZM38.5001 6.79999L27.0001 5.79999C25.3001 5.79999 24.0001 7.09999 24.0001 8.79999V11.3C24.0001 9.59999 25.3001 8.29999 27.0001 8.29999L38.5001 9.19999C39.0001 9.19999 39.4001 9.69999 39.4001 10.2V7.29999C39.4001 7.29999 39.0001 6.79999 38.5001 6.79999Z" fill="white"/>
<path d="M24.0001 34.8V8.79999C24.0001 7.09999 22.7001 5.79999 21.0001 5.79999L9.5001 6.79999C9.0001 6.79999 8.6001 7.29999 8.6001 7.29999V36.3L21.2001 35.9C21.7001 35.3 22.7001 34.8 24.0001 34.8ZM27.0001 5.79999C25.3001 5.79999 24.0001 7.09999 24.0001 8.79999V34.8C25.3001 34.8 26.3001 35.3 26.8001 35.9L39.4001 36.3V7.29999C39.4001 7.29999 39.0001 6.79999 38.5001 6.69999L27.0001 5.79999Z" stroke="#45413C" stroke-miterlimit="10" stroke-linecap="round" stroke-linejoin="round"/>
<path d="M24.0001 34.8C23.8001 33.4 22.5001 32.3 21.0001 32.3L8.6001 33.2L6.1001 36.9L21.2001 36C21.6001 35.3 22.7001 34.9 24.0001 34.8ZM26.8001 36L41.9001 36.8L39.4001 33.1L27.0001 32.3C25.5001 32.3 24.3001 33.4 24.0001 34.8C25.3001 34.9 26.4001 35.3 26.8001 36Z" fill="#FFFCE5" stroke="#45413C" stroke-miterlimit="10" stroke-linecap="round" stroke-linejoin="round"/>
<path d="M28 9.29999L37 10.2M28 13.2L37 14M28 17L37 17.8M28 20.8L37 21.7M28 24.6L37 25.5M28 28.5L37 29.3M20.5 9.29999L11.5 10.2M20.5 13.2L11.5 14M20.5 17L11.5 17.8M20.5 20.8L11.5 21.7M20.5 24.6L11.5 25.5M20.5 28.5L11.5 29.3" stroke="#45413C" stroke-miterlimit="10" stroke-linecap="round" stroke-linejoin="round"/>
<path d="M66.7756 21.2472C66.679 20.8892 66.5369 20.5739 66.3494 20.3011C66.1619 20.0227 65.9318 19.7869 65.6591 19.5938C65.3864 19.4006 65.0739 19.2557 64.7216 19.1591C64.3693 19.0568 63.983 19.0057 63.5625 19.0057C62.7159 19.0057 61.983 19.2102 61.3636 19.6193C60.75 20.0284 60.2756 20.625 59.9403 21.4091C59.6051 22.1875 59.4375 23.1335 59.4375 24.2472C59.4375 25.3665 59.5994 26.321 59.9233 27.1108C60.2472 27.9006 60.7159 28.5028 61.3295 28.9176C61.9432 29.3324 62.6875 29.5398 63.5625 29.5398C64.3352 29.5398 64.9886 29.4148 65.5227 29.1648C66.0625 28.9091 66.4716 28.5483 66.75 28.0824C67.0284 27.6165 67.1676 27.0682 67.1676 26.4375L67.9517 26.5312H63.7074V23.4545H71.233V25.7642C71.233 27.3267 70.9006 28.6648 70.2358 29.7784C69.5767 30.892 68.6676 31.7472 67.5085 32.3438C66.3551 32.9403 65.0284 33.2386 63.5284 33.2386C61.8636 33.2386 60.4006 32.8778 59.1392 32.1562C57.8778 31.4347 56.8949 30.4062 56.1903 29.071C55.4858 27.7301 55.1335 26.1392 55.1335 24.2983C55.1335 22.8665 55.3466 21.5966 55.7727 20.4886C56.1989 19.375 56.7926 18.4318 57.554 17.6591C58.321 16.8864 59.2074 16.3011 60.2131 15.9034C61.2244 15.5057 62.3125 15.3068 63.4773 15.3068C64.4886 15.3068 65.429 15.4517 66.2983 15.7415C67.1733 16.0312 67.946 16.4403 68.6165 16.9688C69.2926 17.4972 69.8409 18.125 70.2614 18.8523C70.6818 19.5795 70.9432 20.3778 71.0455 21.2472H66.7756ZM83.3541 20.7784C83.2973 20.1534 83.0445 19.6676 82.5956 19.321C82.1524 18.9688 81.5189 18.7926 80.695 18.7926C80.1496 18.7926 79.695 18.8636 79.3314 19.0057C78.9678 19.1477 78.695 19.3438 78.5132 19.5938C78.3314 19.8381 78.2376 20.1193 78.232 20.4375C78.2206 20.6989 78.2717 20.929 78.3854 21.1278C78.5047 21.3267 78.6751 21.5028 78.8967 21.6562C79.124 21.804 79.3967 21.9347 79.7149 22.0483C80.0331 22.1619 80.3911 22.2614 80.7888 22.3466L82.2888 22.6875C83.1524 22.875 83.9138 23.125 84.5729 23.4375C85.2376 23.75 85.7945 24.1222 86.2433 24.554C86.6979 24.9858 87.0416 25.483 87.2746 26.0455C87.5075 26.608 87.6268 27.2386 87.6325 27.9375C87.6268 29.0398 87.3484 29.9858 86.7973 30.7756C86.2462 31.5653 85.4536 32.1705 84.4195 32.5909C83.3911 33.0114 82.1496 33.2216 80.695 33.2216C79.2348 33.2216 77.9621 33.0028 76.8768 32.5653C75.7916 32.1278 74.9479 31.4631 74.3456 30.571C73.7433 29.679 73.4337 28.5511 73.4166 27.1875H77.4564C77.4905 27.75 77.6411 28.2188 77.9081 28.5938C78.1751 28.9688 78.5416 29.2528 79.0075 29.446C79.4791 29.6392 80.0246 29.7358 80.6439 29.7358C81.2121 29.7358 81.695 29.6591 82.0928 29.5057C82.4962 29.3523 82.8058 29.1392 83.0217 28.8665C83.2376 28.5937 83.3484 28.2812 83.3541 27.929C83.3484 27.5994 83.2462 27.3182 83.0473 27.0852C82.8484 26.8466 82.5416 26.642 82.1268 26.4716C81.7178 26.2955 81.195 26.1335 80.5587 25.9858L78.7348 25.5597C77.2234 25.2131 76.0331 24.6534 75.1638 23.8807C74.2945 23.1023 73.8626 22.0511 73.8683 20.7273C73.8626 19.6477 74.1524 18.7017 74.7376 17.8892C75.3229 17.0767 76.1325 16.4432 77.1666 15.9886C78.2007 15.5341 79.3797 15.3068 80.7036 15.3068C82.0558 15.3068 83.2291 15.5369 84.2234 15.9972C85.2234 16.4517 85.999 17.0909 86.5501 17.9148C87.1013 18.7386 87.3825 19.6932 87.3939 20.7784H83.3541ZM89.3922 18.9716V15.5455H104.145V18.9716H98.8524V33H94.6933V18.9716H89.3922ZM106.405 33V15.5455H118.576V18.9716H110.624V22.5511H117.954V25.9858H110.624V29.5739H118.576V33H106.405ZM129.796 22.6705V25.875H121.716V22.6705H129.796ZM132.938 33V15.5455H140.217C141.523 15.5455 142.617 15.7301 143.498 16.0994C144.384 16.4687 145.049 16.9858 145.492 17.6506C145.941 18.3153 146.165 19.0852 146.165 19.9602C146.165 20.625 146.026 21.2188 145.748 21.7415C145.469 22.2585 145.086 22.6875 144.597 23.0284C144.109 23.3693 143.543 23.608 142.901 23.7443V23.9148C143.606 23.9489 144.256 24.1392 144.853 24.4858C145.455 24.8324 145.938 25.3153 146.302 25.9347C146.665 26.5483 146.847 27.2756 146.847 28.1165C146.847 29.054 146.609 29.892 146.131 30.6307C145.654 31.3636 144.964 31.9432 144.06 32.3693C143.157 32.7898 142.06 33 140.771 33H132.938ZM137.157 29.5994H139.765C140.68 29.5994 141.353 29.4261 141.785 29.0795C142.222 28.733 142.441 28.25 142.441 27.6307C142.441 27.1818 142.336 26.7955 142.126 26.4716C141.915 26.142 141.617 25.8892 141.231 25.7131C140.844 25.5312 140.381 25.4403 139.842 25.4403H137.157V29.5994ZM137.157 22.7216H139.492C139.952 22.7216 140.362 22.6449 140.719 22.4915C141.077 22.3381 141.356 22.1165 141.555 21.8267C141.759 21.5369 141.862 21.1875 141.862 20.7784C141.862 20.1932 141.654 19.733 141.239 19.3977C140.825 19.0625 140.265 18.8949 139.56 18.8949H137.157V22.7216ZM165.55 24.2727C165.55 26.1932 165.181 27.821 164.442 29.1562C163.704 30.4915 162.704 31.5057 161.442 32.1989C160.187 32.892 158.777 33.2386 157.215 33.2386C155.647 33.2386 154.235 32.8892 152.979 32.1903C151.723 31.4915 150.726 30.4773 149.988 29.1477C149.255 27.8125 148.888 26.1875 148.888 24.2727C148.888 22.3523 149.255 20.7244 149.988 19.3892C150.726 18.054 151.723 17.0398 152.979 16.3466C154.235 15.6534 155.647 15.3068 157.215 15.3068C158.777 15.3068 160.187 15.6534 161.442 16.3466C162.704 17.0398 163.704 18.054 164.442 19.3892C165.181 20.7244 165.55 22.3523 165.55 24.2727ZM161.238 24.2727C161.238 23.1364 161.076 22.1761 160.752 21.392C160.434 20.608 159.973 20.0142 159.371 19.6108C158.775 19.2074 158.056 19.0057 157.215 19.0057C156.38 19.0057 155.661 19.2074 155.059 19.6108C154.456 20.0142 153.993 20.608 153.669 21.392C153.351 22.1761 153.192 23.1364 153.192 24.2727C153.192 25.4091 153.351 26.3693 153.669 27.1534C153.993 27.9375 154.456 28.5312 155.059 28.9347C155.661 29.3381 156.38 29.5398 157.215 29.5398C158.056 29.5398 158.775 29.3381 159.371 28.9347C159.973 28.5312 160.434 27.9375 160.752 27.1534C161.076 26.3693 161.238 25.4091 161.238 24.2727ZM184.688 24.2727C184.688 26.1932 184.318 27.821 183.58 29.1562C182.841 30.4915 181.841 31.5057 180.58 32.1989C179.324 32.892 177.915 33.2386 176.352 33.2386C174.784 33.2386 173.372 32.8892 172.117 32.1903C170.861 31.4915 169.864 30.4773 169.125 29.1477C168.392 27.8125 168.026 26.1875 168.026 24.2727C168.026 22.3523 168.392 20.7244 169.125 19.3892C169.864 18.054 170.861 17.0398 172.117 16.3466C173.372 15.6534 174.784 15.3068 176.352 15.3068C177.915 15.3068 179.324 15.6534 180.58 16.3466C181.841 17.0398 182.841 18.054 183.58 19.3892C184.318 20.7244 184.688 22.3523 184.688 24.2727ZM180.375 24.2727C180.375 23.1364 180.213 22.1761 179.889 21.392C179.571 20.608 179.111 20.0142 178.509 19.6108C177.912 19.2074 177.193 19.0057 176.352 19.0057C175.517 19.0057 174.798 19.2074 174.196 19.6108C173.594 20.0142 173.131 20.608 172.807 21.392C172.489 22.1761 172.33 23.1364 172.33 24.2727C172.33 25.4091 172.489 26.3693 172.807 27.1534C173.131 27.9375 173.594 28.5312 174.196 28.9347C174.798 29.3381 175.517 29.5398 176.352 29.5398C177.193 29.5398 177.912 29.3381 178.509 28.9347C179.111 28.5312 179.571 27.9375 179.889 27.1534C180.213 26.3693 180.375 25.4091 180.375 24.2727ZM187.351 33V15.5455H191.569V22.9261H191.8L197.569 15.5455H202.538L196.351 23.3352L202.649 33H197.604L193.257 26.1392L191.569 28.2699V33H187.351Z" fill="#212121"/>
</svg>
